<svg width="200" height="200" viewBox="0 0 200 200" fill="none" xmlns="http://www.w3.org/2000/svg">
    <path d="M49.7566 105.487L49.8024 105.457C51.4223 103.834 53.3463 102.547 55.4643 101.669C57.5822 100.79 59.8526 100.338 62.1455 100.338C64.4383 100.338 66.7087 100.79 68.8266 101.669C70.9446 102.547 72.8686 103.834 74.4885 105.457L74.5802 105.533L87.6799 119.092L119 87.7869C122.275 84.5171 126.715 82.6807 131.343 82.6807C135.971 82.6807 140.41 84.5171 143.686 87.7869L185.767 129.929V43.3825C185.767 26.0488 171.658 11.9403 154.325 11.9403H45.6753C28.3416 11.9403 14.2331 26.0488 14.2331 43.3825V141.622L49.7566 105.487ZM67.1209 45.5378C69.6059 45.5378 72.0352 46.2747 74.1014 47.6553C76.1677 49.0359 77.7781 50.9983 78.7291 53.2942C79.6801 55.5901 79.9289 58.1164 79.4441 60.5537C78.9593 62.991 77.7626 65.2298 76.0054 66.987C74.2482 68.7442 72.0094 69.9409 69.5721 70.4257C67.1348 70.9105 64.6085 70.6617 62.3126 69.7107C60.0167 68.7597 58.0544 67.1493 56.6737 65.083C55.2931 63.0168 54.5562 60.5875 54.5562 58.1025C54.5562 54.7701 55.88 51.5742 58.2363 49.2179C60.5926 46.8616 63.7885 45.5378 67.1209 45.5378Z" fill="#BBBBBB"/>
    <path d="M64.7363 115.148C64.0401 114.47 63.1062 114.092 62.1347 114.095C61.1632 114.098 60.2314 114.481 59.5393 115.163L14.5235 160.928C16.6329 176.244 29.7937 188.06 45.6753 188.06H135.218L64.7363 115.148Z" fill="#BBBBBB"/>
    <path d="M133.964 97.5085C133.264 96.8223 132.323 96.4379 131.343 96.4379C130.363 96.4379 129.421 96.8223 128.721 97.5085L97.2486 128.997L154.34 188.06C171.674 188.06 185.767 173.951 185.767 156.617V149.403L133.964 97.5085Z" fill="#BBBBBB"/>
</svg>
