<svg width="18" height="18" viewBox="0 0 18 18" fill="none" xmlns="http://www.w3.org/2000/svg">
    <path fill-rule="evenodd" clip-rule="evenodd" d="M9.75 8.56699V5.25C9.75 4.836 9.414 4.5 9 4.5C8.586 4.5 8.25 4.836 8.25 5.25V8.99163C8.24868 9.12397 8.28244 9.25475 8.3475 9.36985C8.4206 9.49405 8.51698 9.58868 8.63225 9.65371L11.8726 11.5245C12.2311 11.7315 12.6901 11.6085 12.8971 11.25C13.1041 10.8915 12.9811 10.4325 12.6226 10.2255L9.75 8.56699ZM9 1.5C13.1422 1.5 16.5 4.85776 16.5 9C16.5 13.1422 13.1422 16.5 9 16.5C4.85776 16.5 1.5 13.1422 1.5 9C1.5 4.85776 4.85776 1.5 9 1.5Z" fill="#70232F"/>
</svg>
