<svg width="20" height="20" viewBox="0 0 20 20" fill="none" xmlns="http://www.w3.org/2000/svg">
    <path fill-rule="evenodd" clip-rule="evenodd" d="M15.2975 8.89373C15.0053 8.97756 14.6957 9.0226 14.375 9.0226C12.6031 9.0226 11.1667 7.64731 11.1667 5.9508C11.1667 5.58022 11.2352 5.22498 11.3608 4.89604C10.7071 4.67487 10.0036 4.55452 9.27083 4.55452C5.80762 4.55452 3 7.24243 3 10.5585C3 13.8746 5.80762 16.5625 9.27083 16.5625C12.734 16.5625 15.5417 13.8746 15.5417 10.5585C15.5417 9.98089 15.4565 9.42234 15.2975 8.89373ZM8.06409 11.2322H11.73V8.22354H8.06409H7.36573V13.5722H8.06409V11.2322Z" fill="#70232F"/>
    <path fill-rule="evenodd" clip-rule="evenodd" d="M14.375 8.4641C15.8247 8.4641 17 7.33885 17 5.9508C17 4.56274 15.8247 3.4375 14.375 3.4375C12.9253 3.4375 11.75 4.56274 11.75 5.9508C11.75 7.33885 12.9253 8.4641 14.375 8.4641ZM13.2083 5.39229L12.625 5.9508L14.0833 7.34707L16.125 5.39229L15.5417 4.83378L14.0833 6.23005L13.2083 5.39229Z" fill="#70232F"/>
</svg>
