<svg width="20" height="20" viewBox="0 0 20 20" fill="none" xmlns="http://www.w3.org/2000/svg">
    <path d="M16.1101 14.65C16.2177 14.65 16.3194 14.6115 16.3872 14.5449C16.4549 14.4784 16.4813 14.3911 16.4591 14.3073L16.2345 13.4608C16.3624 13.3623 16.4428 13.2247 16.4428 13.0717C16.4428 12.9107 16.3527 12.7678 16.2129 12.6686V9.72916L15.3126 10.1729V12.6686C15.1728 12.7678 15.0827 12.9107 15.0827 13.0717C15.0827 13.2247 15.1631 13.3623 15.291 13.4608L15.0664 14.3073C15.0442 14.3911 15.0706 14.4784 15.1383 14.5449C15.2061 14.6114 15.3078 14.65 15.4154 14.65H16.1101ZM16.4153 8.01388L10.5579 5.12639C10.3864 5.04224 10.193 5 9.99963 5C9.80625 5 9.61273 5.04221 9.44223 5.12639L3.58477 8.01388C3.42837 8.09095 3.33337 8.22708 3.33337 8.37358C3.33337 8.52011 3.42837 8.65628 3.58477 8.73347L9.4422 11.621C9.61271 11.7052 9.80622 11.7474 9.9996 11.7474C10.193 11.7474 10.3864 11.7052 10.5579 11.621L16.4153 8.73347C16.5717 8.65631 16.6667 8.52011 16.6667 8.37358C16.6667 8.22708 16.5717 8.09091 16.4153 8.01388ZM9.9996 12.4643C9.63474 12.4643 9.27863 12.3836 8.96822 12.2307L5.55156 10.5462V13.4467C5.55156 14.3051 7.54395 15 9.9996 15C12.4561 15 14.4484 14.3051 14.4484 13.4467V10.5462L11.0318 12.2307C10.7214 12.3836 10.3645 12.4643 9.9996 12.4643Z" fill="#70232F"/>
</svg>
