<svg width="78" height="87" viewBox="0 0 78 87" fill="none" xmlns="http://www.w3.org/2000/svg">
    <g filter="url(#filter0_d_355_784)">
        <path d="M64.0427 46.7872L42.8957 58.9958L29.4064 66.7844L29.1882 66.9103L21.7494 71.2051C16.6236 74.1648 10.215 70.4655 10.215 64.5452V15.7103C10.215 9.79001 16.6229 6.09135 21.7494 9.05042L29.994 13.8103L31.0622 14.4267L42.8957 21.259L47.3719 23.843L47.8314 24.109L64.042 33.4675C69.1684 36.4273 69.1684 43.8275 64.0427 46.7872Z" fill="#681D29"/>
        <path d="M33.4386 49.1116C32.4703 49.3107 30.8799 49.4325 28.6703 48.7442C27.9814 46.5346 28.1031 44.9435 28.303 43.9759C29.2023 39.6186 33.9382 36.9642 40.2237 37.1915C40.4503 43.4763 37.7959 48.2129 33.4386 49.1116Z" fill="#F7DAAB"/>
        <path d="M37.7495 53.6301C37.1168 53.5928 36.1218 53.4091 34.9248 52.647C34.9839 51.2297 35.4019 50.3079 35.7327 49.7674C37.2231 47.3347 40.6818 46.5255 44.4607 47.669C43.2398 51.4232 40.5981 53.7982 37.7495 53.6301Z" fill="#2F050F"/>
        <path d="M50.2346 50.7477C49.6829 50.6738 48.8082 50.4381 47.7231 49.6394C47.6879 48.2925 47.9954 47.4403 48.2495 46.9456C49.3951 44.7184 52.3485 44.1575 55.6975 45.477C54.8657 48.9786 52.7173 51.0805 50.2346 50.7477Z" fill="#D86B79"/>
        <path d="M62.8309 47.4086C62.1828 47.84 61.0463 48.4001 59.1695 48.562C57.8895 47.1792 57.4257 45.9998 57.2364 45.2454C56.3849 41.8472 58.9704 38.5328 63.707 36.827C66.0644 41.2751 65.747 45.4671 62.8309 47.4086Z" fill="#2F050F"/>
        <path d="M50.9369 42.4538C50.3711 42.5805 49.438 42.6684 48.1284 42.2856C47.69 40.9943 47.7365 40.0584 47.8392 39.487C48.3008 36.9178 51.0439 35.3105 54.7411 35.3809C54.9712 39.0718 53.4836 41.8817 50.9369 42.4538Z" fill="#D86B79"/>
        <path d="M46.8111 35.9755C46.3635 36.3471 45.5705 36.8516 44.2292 37.1071C43.2539 36.1521 42.8725 35.2929 42.7057 34.7356C41.9555 32.2262 43.6761 29.5366 47.0074 27.9118C48.8814 31.1087 48.8251 34.3014 46.8111 35.9755Z" fill="#D86B79"/>
        <path d="M39.0605 32.5865C38.6882 33.0094 38 33.6125 36.7277 34.0713C35.5954 33.3317 35.0655 32.5858 34.8002 32.089C33.6082 29.8512 34.8115 27.0406 37.791 24.9696C40.2131 27.6718 40.736 30.6837 39.0605 32.5865Z" fill="#D86B79"/>
        <path d="M28.5267 31.7681C27.9877 31.9046 27.1024 32.0144 25.8696 31.6885C25.4811 30.4747 25.5459 29.5845 25.6542 29.0391C26.1454 26.5853 28.778 24.9808 32.2803 24.9421C32.4203 28.441 30.9517 31.1523 28.5267 31.7681Z" fill="#D86B79"/>
        <path d="M26.1158 22.2554C25.5747 21.9915 24.7682 21.4666 23.9935 20.3561C24.5557 19.1246 25.2545 18.4624 25.7394 18.1057C27.9222 16.4984 31.2472 17.0452 34.1479 19.4343C31.7244 22.3068 28.5528 23.4433 26.1158 22.2554Z" fill="#D86B79"/>
        <path d="M44.5494 56.2183C44.1715 55.758 43.6599 54.9439 43.4087 53.5766C44.3967 52.5984 45.2812 52.2226 45.8548 52.0615C48.4367 51.3346 51.1839 53.1234 52.825 56.5342C49.5288 58.3941 46.2517 58.2907 44.5494 56.2183Z" fill="#D86B79"/>
        <path d="M36.9874 57.5476C37.0148 56.9459 37.1738 56.0015 37.8719 54.8714C39.1977 54.9446 40.064 55.3541 40.5727 55.6757C42.8647 57.1239 43.6634 60.425 42.6402 64.0069C39.1168 62.7986 36.8649 60.2561 36.9874 57.5476Z" fill="#D86B79"/>
        <path d="M30.8025 54.9826C30.9974 54.4843 31.407 53.7314 32.3457 52.9552C33.5005 53.3429 34.1529 53.8996 34.5131 54.2951C36.1352 56.0747 35.9065 59.0415 33.9833 61.7944C31.2015 59.9127 29.9257 57.2246 30.8025 54.9826Z" fill="#D86B79"/>
        <path d="M22.5199 45.5888C22.192 46.1046 21.5594 46.8653 20.2871 47.562C18.9761 46.9406 18.3005 46.2186 17.9431 45.7225C16.3358 43.4911 17.1704 40.2625 19.9958 37.5539C22.9731 40.0929 23.9942 43.2673 22.5199 45.5888Z" fill="#D86B79"/>
        <path d="M16.0346 48.1545C15.9917 48.6957 15.8144 49.5521 15.1191 50.6027C13.8595 50.6062 13.0467 50.2846 12.571 50.0228C10.4296 48.8434 9.7604 45.9224 10.8328 42.6544C14.1529 43.5537 16.226 45.7176 16.0346 48.1545Z" fill="#2F050F"/>
        <path d="M15.5723 55.0086C15.8524 54.7799 16.352 54.4703 17.2119 54.3105C17.8642 54.8925 18.1309 55.4167 18.252 55.7573C18.7959 57.2907 17.7495 58.9402 15.6377 59.9416C14.3521 57.9909 14.3119 56.0374 15.5723 55.0086Z" fill="#2F050F"/>
        <path d="M19.076 58.4589C19.3906 58.202 19.9514 57.8544 20.9169 57.6749C21.6494 58.3287 21.9485 58.917 22.085 59.2998C22.6958 61.021 21.5207 62.8732 19.1499 63.997C17.7052 61.8064 17.6608 59.6136 19.076 58.4589Z" fill="#2F050F"/>
        <path d="M22.432 63.4277C22.6635 63.2391 23.0766 62.9823 23.7873 62.8507C24.3264 63.332 24.5466 63.7648 24.6473 64.0463C25.0969 65.3136 24.2321 66.676 22.4869 67.5043C21.4236 65.8921 21.3905 64.2778 22.432 63.4277Z" fill="#2F050F"/>
        <path d="M26.106 62.7817C25.8386 62.61 25.4438 62.2765 25.0765 61.6009C25.3854 60.8972 25.7513 60.5313 26.0033 60.3378C27.1369 59.4659 28.8005 59.8923 30.2121 61.3856C28.9307 62.9914 27.3086 63.5558 26.106 62.7817Z" fill="#F7DAAB"/>
        <path d="M23.9435 58.1337C23.6395 57.9381 23.1899 57.5588 22.7726 56.7904C23.1244 55.9895 23.5403 55.5744 23.8267 55.3534C25.1166 54.3619 27.0089 54.8467 28.614 56.5448C27.1567 58.3716 25.3123 59.0134 23.9435 58.1337Z" fill="#F7DAAB"/>
        <path d="M27.7956 13.4071C27.7161 13.7279 27.5155 14.2374 26.9483 14.8693C26.099 14.8905 25.5818 14.7124 25.2862 14.5646C23.9541 13.8989 23.7782 12.1805 24.8084 10.2298C26.9603 10.7126 28.1538 11.9623 27.7956 13.4071Z" fill="#2F050F"/>
        <path d="M32.934 12.0707C32.6638 12.3114 32.1642 12.6513 31.2353 12.8877C30.4021 12.4148 30.0087 11.956 29.8117 11.652C28.925 10.2854 29.7892 8.64719 31.958 7.50015C33.7482 9.17778 34.1493 10.9863 32.934 12.0707Z" fill="#D86B79"/>
        <path d="M38.9085 11.9827C38.5777 12.1742 37.9958 12.4148 37.0282 12.4458C36.3569 11.7484 36.1077 11.17 36.0036 10.8019C35.537 9.14612 36.8445 7.61697 39.2751 6.91537C40.5284 9.11374 40.3982 11.1221 38.9085 11.9827Z" fill="#F7DAAB"/>
        <path d="M44.1285 14.8813C43.7028 14.9158 43.0153 14.8855 42.1145 14.4774C41.9583 13.5006 42.1096 12.83 42.256 12.4282C42.9125 10.6197 45.1017 9.73513 47.773 10.1581C47.4767 12.8455 46.0461 14.7244 44.1285 14.8813Z" fill="#F7DAAB"/>
        <path d="M48.139 18.9431C47.7287 18.903 47.0736 18.751 46.2432 18.1859C46.17 17.1838 46.3678 16.5414 46.5388 16.1656C47.3086 14.4767 49.4732 13.9785 51.9967 14.8701C51.502 17.5012 49.9862 19.1239 48.139 18.9431Z" fill="#F7DAAB"/>
        <path d="M48.711 23.7853C48.4387 23.539 48.0496 23.0823 47.7491 22.2273C48.2142 21.4497 48.6871 21.0795 49.0031 20.893C50.4246 20.0528 52.226 20.8269 53.5666 22.8148C51.8559 24.4939 49.9362 24.8922 48.711 23.7853Z" fill="#F7DAAB"/>
        <path d="M60.8781 36.2204C60.7156 36.6546 60.3482 37.3414 59.425 38.1852C58.1745 38.1901 57.4391 37.9332 57.0253 37.7242C55.1626 36.782 55.1493 34.4401 56.9409 31.8181C60.0351 32.5337 61.6107 34.2655 60.8781 36.2204Z" fill="#D86B79"/>
        <path d="M20.2195 54.0368C19.8796 53.8179 19.3765 53.3936 18.9092 52.5337C19.3026 51.6379 19.7685 51.1727 20.0894 50.9257C21.5326 49.816 23.6501 50.3585 25.4466 52.2592C23.8155 54.3035 21.7508 55.022 20.2195 54.0368Z" fill="#F7DAAB"/>
        <path d="M27.899 35.0952C28.4219 34.9791 29.2797 34.8996 30.4661 35.2507C30.8236 36.4351 30.7476 37.2936 30.6343 37.8171C30.1227 40.1731 27.5535 41.646 24.1687 41.5791C24.085 38.1943 25.5451 35.6181 27.899 35.0952Z" fill="#2F050F"/>
        <path d="M22.6663 31.6625C23.211 31.8539 24.0385 32.267 24.9076 33.248C24.5262 34.502 23.9463 35.2225 23.5311 35.6237C21.6621 37.4294 18.449 37.29 15.4104 35.3225C17.3519 32.267 20.2146 30.8012 22.6663 31.6625Z" fill="#2F050F"/>
        <path d="M20.4863 26.2982C20.9718 26.7169 21.6565 27.4656 22.1329 28.7626C21.1787 29.7611 20.2526 30.1749 19.6397 30.3649C16.8826 31.2192 13.578 29.671 11.2656 26.5001C14.6511 24.5143 18.2991 24.4144 20.4863 26.2982Z" fill="#2F050F"/>
        <path d="M22.1308 19.2647C22.0984 20.0247 21.8873 21.2435 20.9373 22.8141C19.1126 23.0196 17.9177 22.7016 17.214 22.413C14.048 21.1133 12.92 17.1578 14.2964 12.4423C19.1548 13.1657 22.2757 15.8447 22.1308 19.2647Z" fill="#F7DAAB"/>
        <path d="M49.0327 46.1842C48.671 50.2122 44.8879 54.0009 40.7733 54.9938C33.3823 56.7777 29.0693 48.5662 21.7775 49.671C18.7966 50.1228 14.5554 52.248 10.215 60.6833C10.215 59.7044 10.215 58.7256 10.215 57.7467C14.3436 50.5999 18.3237 48.5191 21.4109 48.1109C29.2283 47.0779 34.1247 56.4005 40.9577 54.2592C44.4516 53.1642 47.1024 49.4881 47.3811 45.9998C47.7259 41.6861 44.4206 37.9255 41.508 36.0888C35.1521 32.0819 29.4901 36.497 25.0814 32.4183C21.4784 29.0842 22.3539 23.4461 22.42 23.0583C23.097 19.081 26.0772 15.5196 29.9933 13.8103C31.8623 12.9926 33.946 12.5978 36.093 12.7808C41.9506 13.279 46.8906 17.9544 47.8307 24.1097L47.3712 23.8437C46.1827 18.1113 41.47 13.9327 36.093 13.6069C34.3436 13.5013 32.6322 13.8096 31.0615 14.4274C27.0384 16.0108 23.9407 19.6278 23.5213 23.5179C23.4678 24.0076 23.111 27.8963 25.8154 30.7674C29.666 34.8566 34.6736 31.5225 41.2321 35.0804C44.7232 36.9741 49.4746 41.2653 49.0327 46.1842Z" fill="#D86B79"/>
        <path d="M29.4064 66.7844L29.1882 66.9103C27.082 65.6437 25.7858 64.2721 24.9899 63.2532C22.9689 60.6664 23.1659 59.0204 20.8606 56.5539C19.6946 55.3062 18.3308 53.8475 16.6391 53.9847C15.2113 54.1001 14.1993 55.2999 12.6012 57.1964C11.4683 58.5405 10.7026 59.791 10.215 60.6832C10.215 59.6741 10.215 58.6643 10.215 57.6552C10.3754 57.3456 10.614 56.9262 10.9489 56.4624C11.331 55.934 13.5674 52.8384 16.4547 52.7919C18.9733 52.7511 20.8001 55.0494 21.7775 56.2788C23.743 58.7516 23.3404 60.2737 25.1729 62.8858C26.5634 64.8682 28.2474 66.0842 29.4064 66.7844Z" fill="#F7DAAB"/>
        <g style="mix-blend-mode:multiply">
            <path d="M23.4446 70.2255L21.7494 71.2043C16.6236 74.1641 10.215 70.4648 10.215 64.5445V15.7103C10.215 9.79001 16.6229 6.09135 21.7494 9.05042L23.4446 10.0293C19.7347 10.0996 16.3639 13.0876 16.3639 17.245V63.0097C16.3639 67.1665 19.7347 70.1544 23.4446 70.2255Z" fill="#B4B4B4"/>
        </g>
    </g>
    <defs>
        <filter id="filter0_d_355_784" x="0.214966" y="0.915375" width="77.6719" height="85.3314" filterUnits="userSpaceOnUse" color-interpolation-filters="sRGB">
            <feFlood flood-opacity="0" result="BackgroundImageFix"/>
            <feColorMatrix in="SourceAlpha" type="matrix" values="0 0 0 0 0 0 0 0 0 0 0 0 0 0 0 0 0 0 127 0" result="hardAlpha"/>
            <feOffset dy="4"/>
            <feGaussianBlur stdDeviation="5"/>
            <feComposite in2="hardAlpha" operator="out"/>
            <feColorMatrix type="matrix" values="0 0 0 0 0.968627 0 0 0 0 0.854902 0 0 0 0 0.670588 0 0 0 0.5 0"/>
            <feBlend mode="normal" in2="BackgroundImageFix" result="effect1_dropShadow_355_784"/>
            <feBlend mode="normal" in="SourceGraphic" in2="effect1_dropShadow_355_784" result="shape"/>
        </filter>
    </defs>
</svg>
