<svg width="76" height="76" viewBox="0 0 76 76" fill="none" xmlns="http://www.w3.org/2000/svg">
    <path d="M63.0427 44.7872L41.8957 56.9958L28.4064 64.7844L28.1882 64.9103L20.7494 69.2051C15.6236 72.1648 9.21497 68.4655 9.21497 62.5452V13.7103C9.21497 7.79001 15.6229 4.09135 20.7494 7.05042L28.994 11.8103L30.0622 12.4267L41.8957 19.259L46.3719 21.843L46.8314 22.109L63.042 31.4675C68.1684 34.4273 68.1684 41.8275 63.0427 44.7872Z" fill="white"/>
    <path d="M32.4386 47.1116C31.4703 47.3107 29.8799 47.4325 27.6703 46.7442C26.9814 44.5346 27.1031 42.9435 27.303 41.9759C28.2023 37.6186 32.9382 34.9642 39.2237 35.1915C39.4503 41.4763 36.7959 46.2129 32.4386 47.1116Z" fill="#F7DAAB"/>
    <path d="M36.7495 51.6301C36.1168 51.5928 35.1218 51.4091 33.9248 50.647C33.9839 49.2297 34.4019 48.3079 34.7327 47.7674C36.2231 45.3347 39.6818 44.5255 43.4607 45.669C42.2398 49.4232 39.5981 51.7982 36.7495 51.6301Z" fill="#2F050F"/>
    <path d="M49.2346 48.7477C48.6829 48.6738 47.8082 48.4381 46.7231 47.6394C46.6879 46.2925 46.9954 45.4403 47.2495 44.9456C48.3951 42.7184 51.3485 42.1575 54.6975 43.477C53.8657 46.9786 51.7173 49.0805 49.2346 48.7477Z" fill="#D86B79"/>
    <path d="M61.8309 45.4086C61.1828 45.84 60.0463 46.4001 58.1695 46.562C56.8895 45.1792 56.4257 43.9998 56.2364 43.2454C55.3849 39.8472 57.9704 36.5328 62.707 34.827C65.0644 39.2751 64.747 43.4671 61.8309 45.4086Z" fill="#2F050F"/>
    <path d="M49.9368 40.4538C49.3711 40.5805 48.4379 40.6684 47.1284 40.2856C46.6899 38.9943 46.7364 38.0584 46.8391 37.487C47.3008 34.9178 50.0438 33.3105 53.7411 33.3809C53.9712 37.0718 52.4835 39.8817 49.9368 40.4538Z" fill="#D86B79"/>
    <path d="M45.8111 33.9755C45.3635 34.3471 44.5705 34.8516 43.2292 35.1071C42.2539 34.1521 41.8725 33.2929 41.7057 32.7356C40.9555 30.2262 42.6761 27.5366 46.0074 25.9118C47.8814 29.1087 47.8251 32.3014 45.8111 33.9755Z" fill="#D86B79"/>
    <path d="M38.0605 30.5865C37.6883 31.0094 37 31.6125 35.7277 32.0713C34.5955 31.3317 34.0656 30.5858 33.8003 30.089C32.6082 27.8512 33.8116 25.0406 36.791 22.9696C39.2132 25.6718 39.736 28.6837 38.0605 30.5865Z" fill="#D86B79"/>
    <path d="M27.5268 29.7681C26.9878 29.9046 26.1025 30.0144 24.8696 29.6885C24.4812 28.4747 24.5459 27.5845 24.6543 27.0391C25.1455 24.5853 27.778 22.9808 31.2804 22.9421C31.4204 26.441 29.9518 29.1523 27.5268 29.7681Z" fill="#D86B79"/>
    <path d="M25.1159 20.2554C24.5748 19.9915 23.7683 19.4666 22.9935 18.3561C23.5558 17.1246 24.2546 16.4624 24.7394 16.1057C26.9223 14.4984 30.2473 15.0452 33.148 17.4343C30.7244 20.3068 27.5528 21.4433 25.1159 20.2554Z" fill="#D86B79"/>
    <path d="M43.5494 54.2183C43.1715 53.758 42.6599 52.9439 42.4087 51.5766C43.3967 50.5984 44.2812 50.2226 44.8548 50.0615C47.4367 49.3346 50.1839 51.1234 51.825 54.5342C48.5288 56.3941 45.2517 56.2907 43.5494 54.2183Z" fill="#D86B79"/>
    <path d="M35.9874 55.5476C36.0149 54.9459 36.1739 54.0015 36.872 52.8714C38.1978 52.9446 39.064 53.3541 39.5728 53.6757C41.8648 55.1239 42.6635 58.425 41.6403 62.0069C38.1168 60.7986 35.865 58.2561 35.9874 55.5476Z" fill="#D86B79"/>
    <path d="M29.8025 52.9826C29.9974 52.4843 30.407 51.7314 31.3457 50.9552C32.5005 51.3429 33.1529 51.8996 33.5131 52.2951C35.1352 54.0747 34.9065 57.0415 32.9833 59.7944C30.2015 57.9127 28.9257 55.2246 29.8025 52.9826Z" fill="#D86B79"/>
    <path d="M21.5199 43.5888C21.192 44.1046 20.5593 44.8653 19.287 45.562C17.976 44.9406 17.3005 44.2186 16.943 43.7225C15.3357 41.4911 16.1703 38.2625 18.9957 35.5539C21.9731 38.0929 22.9941 41.2673 21.5199 43.5888Z" fill="#D86B79"/>
    <path d="M15.0346 46.1545C14.9916 46.6957 14.8143 47.5521 14.119 48.6027C12.8594 48.6062 12.0466 48.2846 11.5709 48.0228C9.42956 46.8434 8.76034 43.9224 9.83278 40.6544C13.1529 41.5537 15.226 43.7176 15.0346 46.1545Z" fill="#2F050F"/>
    <path d="M14.5722 53.0086C14.8523 52.7799 15.3519 52.4703 16.2118 52.3105C16.8642 52.8925 17.1309 53.4167 17.2519 53.7573C17.7959 55.2907 16.7495 56.9402 14.6377 57.9416C13.352 55.9909 13.3119 54.0374 14.5722 53.0086Z" fill="#2F050F"/>
    <path d="M18.076 56.4589C18.3906 56.202 18.9514 55.8544 19.9169 55.6749C20.6494 56.3287 20.9485 56.917 21.085 57.2998C21.6958 59.021 20.5207 60.8732 18.1499 61.997C16.7052 59.8064 16.6608 57.6136 18.076 56.4589Z" fill="#2F050F"/>
    <path d="M21.432 61.4277C21.6635 61.2391 22.0766 60.9823 22.7873 60.8507C23.3264 61.332 23.5466 61.7648 23.6473 62.0463C24.0969 63.3136 23.2321 64.676 21.4869 65.5043C20.4236 63.8921 20.3905 62.2778 21.432 61.4277Z" fill="#2F050F"/>
    <path d="M25.1061 60.7817C24.8386 60.61 24.4439 60.2765 24.0765 59.6009C24.3855 58.8972 24.7514 58.5313 25.0033 58.3378C26.137 57.4659 27.8005 57.8923 29.2122 59.3856C27.9307 60.9914 26.3087 61.5558 25.1061 60.7817Z" fill="#F7DAAB"/>
    <path d="M22.9435 56.1337C22.6395 55.9381 22.1899 55.5588 21.7726 54.7904C22.1244 53.9895 22.5403 53.5744 22.8267 53.3534C24.1166 52.3619 26.0089 52.8467 27.614 54.5448C26.1567 56.3716 24.3123 57.0134 22.9435 56.1337Z" fill="#F7DAAB"/>
    <path d="M26.7955 11.4071C26.716 11.7279 26.5155 12.2374 25.9483 12.8693C25.0989 12.8905 24.5817 12.7124 24.2861 12.5646C22.954 11.8989 22.7781 10.1805 23.8083 8.22983C25.9602 8.71257 27.1537 9.96235 26.7955 11.4071Z" fill="#2F050F"/>
    <path d="M31.934 10.0707C31.6638 10.3114 31.1642 10.6513 30.2353 10.8877C29.4021 10.4148 29.0087 9.956 28.8117 9.652C27.925 8.28541 28.7892 6.64719 30.958 5.50015C32.7482 7.17778 33.1493 8.9863 31.934 10.0707Z" fill="#D86B79"/>
    <path d="M37.9085 9.98275C37.5777 10.1742 36.9958 10.4148 36.0282 10.4458C35.3569 9.74841 35.1077 9.16997 35.0036 8.80193C34.537 7.14612 35.8445 5.61697 38.2751 4.91537C39.5284 7.11374 39.3982 9.12212 37.9085 9.98275Z" fill="#F7DAAB"/>
    <path d="M43.1286 12.8813C42.7028 12.9158 42.0153 12.8855 41.1146 12.4774C40.9584 11.5006 41.1097 10.83 41.256 10.4282C41.9126 8.61969 44.1018 7.73513 46.7731 8.15806C46.4768 10.8455 45.0462 12.7244 43.1286 12.8813Z" fill="#F7DAAB"/>
    <path d="M47.139 16.9431C46.7287 16.903 46.0736 16.751 45.2432 16.1859C45.17 15.1838 45.3678 14.5414 45.5388 14.1656C46.3086 12.4767 48.4732 11.9785 50.9967 12.8701C50.502 15.5012 48.9862 17.1239 47.139 16.9431Z" fill="#F7DAAB"/>
    <path d="M47.7111 21.7853C47.4388 21.539 47.0496 21.0823 46.7491 20.2273C47.2143 19.4497 47.6872 19.0795 48.0031 18.893C49.4246 18.0528 51.2261 18.8269 52.5667 20.8148C50.856 22.4939 48.9363 22.8922 47.7111 21.7853Z" fill="#F7DAAB"/>
    <path d="M59.8782 34.2204C59.7156 34.6546 59.3483 35.3414 58.425 36.1852C57.1745 36.1901 56.4392 35.9332 56.0254 35.7242C54.1627 34.782 54.1493 32.4401 55.9409 29.8181C59.0351 30.5337 60.6107 32.2655 59.8782 34.2204Z" fill="#D86B79"/>
    <path d="M19.2195 52.0368C18.8796 51.8179 18.3764 51.3936 17.9092 50.5337C18.3026 49.6379 18.7684 49.1727 19.0893 48.9257C20.5326 47.816 22.65 48.3585 24.4466 50.2592C22.8154 52.3035 20.7507 53.022 19.2195 52.0368Z" fill="#F7DAAB"/>
    <path d="M26.899 33.0952C27.4219 32.9791 28.2797 32.8996 29.4661 33.2507C29.8236 34.4351 29.7476 35.2936 29.6343 35.8171C29.1227 38.1731 26.5535 39.646 23.1687 39.5791C23.085 36.1943 24.5451 33.6181 26.899 33.0952Z" fill="#2F050F"/>
    <path d="M21.6663 29.6625C22.211 29.8539 23.0385 30.267 23.9076 31.248C23.5262 32.502 22.9463 33.2225 22.5311 33.6237C20.6621 35.4294 17.449 35.29 14.4104 33.3225C16.3519 30.267 19.2146 28.8012 21.6663 29.6625Z" fill="#2F050F"/>
    <path d="M19.4863 24.2982C19.9718 24.7169 20.6565 25.4656 21.1329 26.7626C20.1787 27.7611 19.2526 28.1749 18.6397 28.3649C15.8826 29.2192 12.578 27.671 10.2656 24.5001C13.6511 22.5143 17.2991 22.4144 19.4863 24.2982Z" fill="#2F050F"/>
    <path d="M21.1308 17.2647C21.0984 18.0247 20.8873 19.2435 19.9373 20.8141C18.1126 21.0196 16.9177 20.7016 16.214 20.413C13.048 19.1133 11.92 15.1578 13.2964 10.4423C18.1548 11.1657 21.2757 13.8447 21.1308 17.2647Z" fill="#F7DAAB"/>
    <path d="M48.0327 44.1842C47.671 48.2122 43.8879 52.0009 39.7733 52.9938C32.3823 54.7777 28.0693 46.5662 20.7775 47.671C17.7966 48.1228 13.5554 50.248 9.21497 58.6833C9.21497 57.7044 9.21497 56.7256 9.21497 55.7467C13.3436 48.5999 17.3237 46.5191 20.4109 46.1109C28.2283 45.0779 33.1247 54.4005 39.9577 52.2592C43.4516 51.1642 46.1024 47.4881 46.3811 43.9998C46.7259 39.6861 43.4206 35.9255 40.508 34.0888C34.1521 30.0819 28.4901 34.497 24.0814 30.4183C20.4784 27.0842 21.3539 21.4461 21.42 21.0583C22.097 17.081 25.0772 13.5196 28.9933 11.8103C30.8623 10.9926 32.946 10.5978 35.093 10.7808C40.9506 11.279 45.8906 15.9544 46.8307 22.1097L46.3712 21.8437C45.1827 16.1113 40.47 11.9327 35.093 11.6069C33.3436 11.5013 31.6322 11.8096 30.0615 12.4274C26.0384 14.0108 22.9407 17.6278 22.5213 21.5179C22.4678 22.0076 22.111 25.8963 24.8154 28.7674C28.666 32.8566 33.6736 29.5225 40.2321 33.0804C43.7232 34.9741 48.4746 39.2653 48.0327 44.1842Z" fill="#D86B79"/>
    <path d="M28.4064 64.7844L28.1882 64.9103C26.082 63.6437 24.7858 62.2721 23.9899 61.2532C21.9689 58.6664 22.1659 57.0204 19.8606 54.5539C18.6946 53.3062 17.3308 51.8475 15.6391 51.9847C14.2113 52.1001 13.1993 53.2999 11.6012 55.1964C10.4683 56.5405 9.70263 57.791 9.21497 58.6832C9.21497 57.6741 9.21497 56.6643 9.21497 55.6552C9.37541 55.3456 9.61397 54.9262 9.94893 54.4624C10.331 53.934 12.5674 50.8384 15.4547 50.7919C17.9733 50.7511 19.8001 53.0494 20.7775 54.2788C22.743 56.7516 22.3404 58.2737 24.1729 60.8858C25.5634 62.8682 27.2474 64.0842 28.4064 64.7844Z" fill="#F7DAAB"/>
    <g style="mix-blend-mode:multiply">
        <path d="M22.4446 68.2255L20.7494 69.2043C15.6236 72.1641 9.21497 68.4648 9.21497 62.5445V13.7103C9.21497 7.79001 15.6229 4.09135 20.7494 7.05042L22.4446 8.02927C18.7347 8.09964 15.3639 11.0876 15.3639 15.245V61.0097C15.3639 65.1665 18.7347 68.1544 22.4446 68.2255Z" fill="#B8747F" fill-opacity="0.6"/>
    </g>
</svg>
