<svg width="4" height="4" viewBox="0 0 4 4" fill="none" xmlns="http://www.w3.org/2000/svg">
    <path d="M1.96 3.56C1.69333 3.56 1.44 3.49333 1.2 3.36C0.973333 3.22667 0.793333 3.04667 0.66 2.82C0.526667 2.59333 0.46 2.32667 0.46 2.02C0.46 1.74 0.526667 1.48667 0.66 1.26C0.793333 1.03333 0.973333 0.853333 1.2 0.72C1.44 0.586666 1.69333 0.52 1.96 0.52C2.22667 0.52 2.47333 0.586666 2.7 0.72C2.92667 0.853333 3.10667 1.03333 3.24 1.26C3.38667 1.48667 3.46 1.74 3.46 2.02C3.46 2.32667 3.38667 2.59333 3.24 2.82C3.10667 3.04667 2.92667 3.22667 2.7 3.36C2.47333 3.49333 2.22667 3.56 1.96 3.56Z" fill="#333333"/>
</svg>
