<svg width="18" height="18" viewBox="0 0 18 18" fill="none" xmlns="http://www.w3.org/2000/svg">
    <path d="M11.2265 12.236C10.7819 12.1704 10.7718 11.0455 10.7718 11.0455C10.7718 11.0455 12.0777 9.85398 12.3618 8.25249C13.1271 8.25249 13.5999 6.54948 12.834 5.9503C12.8669 5.31956 13.8177 1 8.99946 1C4.18173 1 5.13361 5.31956 5.16541 5.9503C4.40009 6.54948 4.87285 8.25249 5.63817 8.25249C5.92225 9.85398 7.22819 11.0455 7.22819 11.0455C7.22819 11.0455 7.21758 12.1704 6.77345 12.236C5.34243 12.4464 0 14.618 0 17H8.99946H18C18 14.618 12.6575 12.4464 11.2265 12.236Z" fill="#70232F"/>
</svg>
